<?xml version="1.0" standalone="no"?>
<!DOCTYPE svg PUBLIC "-//W3C//DTD SVG 20010904//EN"
 "http://www.w3.org/TR/2001/REC-SVG-20010904/DTD/svg10.dtd">
<svg version="1.0" xmlns="http://www.w3.org/2000/svg"
 width="635.000000pt" height="630.000000pt" viewBox="0 0 635.000000 630.000000"
 preserveAspectRatio="xMidYMid meet">

<g transform="translate(0.000000,630.000000) scale(0.100000,-0.100000)"
fill="#000000" stroke="none">
<path d="M3042 5658 c-15 -15 -15 -56 -1 -114 10 -39 15 -44 40 -44 37 0 49
24 49 94 0 44 -4 57 -19 66 -26 13 -54 13 -69 -2z"/>
<path d="M3273 5634 c-6 -15 11 -102 22 -112 22 -23 67 77 48 106 -14 24 -61
28 -70 6z"/>
<path d="M2831 5624 c-19 -13 -22 -22 -17 -47 7 -35 32 -77 45 -77 12 0 31 56
31 89 0 25 -16 51 -30 51 -3 0 -16 -7 -29 -16z"/>
<path d="M2980 5184 c-14 -3 -44 -7 -66 -10 -40 -5 -42 -7 -48 -46 -4 -22 -5
-42 -3 -45 3 -2 60 1 128 6 77 6 166 7 234 1 60 -4 112 -7 114 -5 1 2 -3 23
-11 47 -14 41 -17 43 -64 50 -52 7 -242 8 -284 2z"/>
<path d="M3467 4828 c-25 -7 -41 -18 -47 -33 -8 -22 -11 -22 -52 -12 -62 15
-429 14 -502 -2 -40 -9 -61 -10 -65 -3 -8 13 -83 31 -128 32 -37 0 -32 13 -58
-180 -22 -166 -20 -202 10 -230 14 -13 25 -30 25 -37 0 -10 9 -12 33 -8 19 4
50 0 75 -8 l42 -15 -7 104 c-4 74 -3 104 5 104 15 0 36 -43 51 -105 27 -109
33 -126 48 -132 8 -3 46 4 82 15 82 27 194 29 271 6 79 -23 91 -13 131 108 50
153 61 157 56 22 l-4 -112 31 19 c17 10 52 19 79 20 37 2 47 6 47 21 0 9 9 22
19 28 11 5 23 19 26 30 7 21 -13 153 -43 295 l-17 80 -35 2 c-19 1 -52 -3 -73
-9z m93 -23 c13 -16 6 -35 -15 -35 -18 0 -28 17 -21 35 7 19 20 19 36 0z m-82
-28 c4 -20 -25 -34 -40 -19 -15 15 -1 44 19 40 10 -2 19 -11 21 -21z m-788
-13 c0 -19 -28 -30 -42 -16 -8 8 -8 15 1 26 14 17 41 10 41 -10z m86 -5 c10
-17 -23 -46 -37 -32 -7 7 -9 19 -6 27 7 18 33 21 43 5z m209 -14 c0 -11 -7
-21 -16 -23 -18 -3 -33 23 -23 39 10 17 39 5 39 -16z m129 16 c9 -14 -4 -41
-19 -41 -18 0 -28 17 -21 35 6 17 32 20 40 6z m130 0 c10 -16 -6 -42 -23 -39
-9 2 -17 13 -19 26 -3 16 2 22 17 22 11 0 22 -4 25 -9z m136 -17 c11 -12 11
-18 -1 -30 -13 -12 -18 -12 -34 0 -16 12 -17 16 -6 30 17 20 25 20 41 0z
m-512 -17 c4 -20 -25 -34 -40 -19 -15 15 -1 44 19 40 10 -2 19 -11 21 -21z
m-198 -122 c0 -8 9 -15 20 -15 11 0 20 5 20 10 0 16 13 11 44 -16 23 -21 26
-28 15 -35 -20 -12 -63 -11 -93 3 -33 14 -61 54 -43 61 23 10 37 7 37 -8z
m930 5 c26 -16 -29 -61 -83 -67 -57 -7 -70 11 -31 42 26 21 31 22 46 8 15 -13
18 -13 30 6 15 24 17 24 38 11z m-650 -65 c0 -18 5 -25 19 -25 11 0 21 5 23
12 4 12 58 -18 58 -33 0 -18 -92 -9 -125 11 -55 34 -52 55 8 59 12 1 17 -6 17
-24z m374 16 c16 -6 14 -11 -18 -39 -31 -27 -45 -32 -86 -32 -54 0 -59 4 -33
32 18 21 39 24 45 6 7 -19 38 -1 38 22 0 21 19 25 54 11z"/>
<path d="M4660 4433 c-29 -16 -59 -38 -67 -49 -12 -19 -11 -25 12 -52 30 -36
31 -58 5 -181 -22 -110 -21 -109 -195 -253 -250 -207 -300 -237 -393 -238 -90
0 -215 44 -257 90 -33 37 -179 130 -204 130 -4 0 -7 -111 -7 -247 0 -287 -13
-425 -55 -578 -46 -167 -119 -280 -195 -305 l-33 -11 24 -35 c31 -46 39 -84
26 -131 -22 -82 -88 -109 -136 -57 -42 45 -47 153 -9 195 16 18 16 19 -7 19
-14 0 -48 12 -77 26 -62 31 -120 100 -168 199 -36 74 -84 224 -84 260 0 26 60
120 69 108 4 -4 18 -53 31 -108 13 -55 27 -104 32 -110 4 -5 8 -17 8 -26 0
-10 19 -54 42 -99 45 -89 88 -130 154 -150 36 -11 45 -10 82 9 119 61 177 247
197 629 8 148 -3 472 -15 452 -6 -10 -9 -9 -13 1 -2 8 -5 -66 -6 -164 -2 -295
-51 -456 -155 -512 -33 -18 -34 -19 -15 -39 44 -46 45 -141 3 -187 -25 -28
-70 -24 -99 7 -21 22 -25 37 -25 86 0 37 6 68 16 83 16 24 15 25 -25 41 -80
32 -171 178 -171 273 0 55 -8 84 -21 76 -15 -10 -49 172 -49 265 0 21 -5 42
-12 46 -13 8 -6 -161 13 -333 13 -113 8 -147 -17 -122 -11 12 -16 49 -21 140
-6 125 -16 159 -49 159 -8 0 -15 21 -20 59 -7 67 -9 68 -86 28 -26 -14 -44
-28 -40 -32 4 -5 1 -5 -5 -1 -15 8 -82 -35 -163 -105 -59 -50 -199 -116 -306
-143 -93 -24 -104 -19 -389 171 -246 164 -230 147 -226 237 3 83 -12 124 -54
152 -28 18 -48 10 -40 -16 3 -10 1 -21 -5 -25 -6 -4 -8 -15 -5 -25 3 -10 1
-21 -5 -25 -6 -4 -7 -12 -1 -23 8 -14 6 -22 -16 -61 -1 -2 -14 4 -28 13 -22
15 -25 22 -19 49 8 38 24 69 42 80 17 11 15 36 -3 43 -22 9 -68 -13 -84 -38
-7 -12 -16 -41 -20 -65 l-6 -44 -34 23 c-19 13 -51 50 -71 83 -40 65 -61 76
-91 49 -32 -29 -26 -115 14 -194 34 -69 95 -121 161 -138 27 -7 31 -12 28 -36
-3 -22 0 -27 15 -24 10 2 19 12 21 24 2 17 8 20 35 16 38 -6 61 -31 45 -49 -7
-9 -7 -17 1 -27 7 -8 8 -17 3 -20 -6 -3 -9 -38 -8 -77 0 -39 -1 -72 -4 -74 -3
-2 -5 -42 -5 -89 0 -94 -8 -105 -44 -59 -12 15 -19 34 -16 44 3 9 1 20 -5 24
-6 4 -8 16 -5 26 4 11 1 26 -5 34 -9 11 -9 15 -1 15 17 0 13 30 -5 37 -22 8
-40 -12 -26 -30 6 -7 8 -23 5 -36 -4 -14 -1 -26 8 -32 10 -6 10 -9 2 -9 -7 0
-13 -9 -13 -20 0 -11 4 -20 10 -20 5 0 7 -7 3 -16 -4 -10 0 -22 8 -28 9 -6 18
-19 22 -30 4 -10 13 -16 21 -13 7 3 18 1 24 -5 15 -15 45 -1 39 16 -3 8 -1 16
5 18 7 3 11 64 13 170 1 91 7 173 12 182 9 16 12 15 27 -9 31 -47 220 -258
293 -326 144 -135 201 -159 386 -159 125 0 116 15 91 -151 -9 -59 -16 -179
-17 -279 -2 -170 -1 -177 24 -231 38 -80 72 -109 130 -109 40 0 55 6 96 39 26
21 66 66 88 100 44 67 61 77 51 30 -3 -17 -6 -59 -6 -94 l0 -62 -57 -13 c-32
-7 -77 -19 -101 -27 -39 -13 -48 -12 -120 11 -99 31 -232 50 -298 41 -196 -24
-316 -214 -259 -411 20 -72 45 -114 105 -178 119 -129 364 -240 737 -336 164
-43 235 -48 241 -17 2 10 -3 17 -13 17 -13 0 -14 4 -5 21 6 11 12 30 13 42 4
33 30 97 40 97 5 0 6 7 3 16 -3 8 -2 13 3 10 11 -7 23 22 15 35 -3 5 0 9 5 9
6 0 10 3 10 8 -3 19 2 45 8 39 14 -15 32 15 26 44 -4 21 0 36 13 50 10 11 23
35 29 52 11 35 5 34 132 20 40 -5 75 -11 78 -15 10 -10 -25 -69 -36 -62 -7 4
-9 -1 -4 -15 8 -26 -10 -28 -24 -3 -9 15 -10 15 -11 -5 0 -13 5 -23 10 -23 6
0 10 -8 10 -19 0 -15 13 -20 69 -30 83 -13 171 -14 203 -2 46 17 80 22 73 11
-3 -5 0 -10 8 -10 9 0 15 -10 15 -25 0 -14 -5 -22 -11 -18 -6 3 -7 1 -3 -6 6
-9 11 -9 21 -1 30 25 -22 95 -55 75 -14 -9 -52 34 -46 52 4 10 2 13 -8 10 -12
-5 -57 47 -91 105 -5 9 -20 33 -32 52 -12 20 -17 36 -12 36 6 0 9 6 6 13 -3 8
8 18 27 26 17 7 39 17 49 22 11 6 17 6 17 -1 0 -5 5 -10 10 -10 6 0 10 6 10
14 0 17 11 25 40 31 13 2 26 -6 40 -25 21 -29 23 -49 5 -62 -6 -4 -1 -8 10 -9
11 -1 26 -2 33 -3 15 -1 53 -57 46 -68 -3 -5 -2 -8 3 -7 24 4 25 -3 3 -17
l-25 -15 27 6 c23 4 26 2 21 -12 -5 -12 -2 -15 10 -10 9 3 19 1 23 -5 4 -6 3
-8 -4 -4 -15 9 -21 -16 -7 -30 6 -7 20 -14 31 -16 13 -3 18 -11 16 -27 -2 -19
0 -21 12 -12 11 9 14 8 12 -6 0 -10 5 -17 12 -15 6 1 12 -4 12 -12 0 -7 7 -19
15 -26 9 -7 13 -20 10 -29 -2 -9 0 -23 6 -31 9 -12 10 -11 6 8 -7 31 11 28 19
-3 4 -15 1 -32 -6 -40 -10 -12 -9 -15 8 -15 15 0 20 5 16 15 -4 8 -1 15 6 15
16 0 42 -28 30 -32 -5 -2 0 -14 11 -28 16 -19 19 -20 15 -6 -6 16 -4 17 9 6
12 -10 13 -16 4 -26 -9 -10 -9 -14 0 -14 6 0 21 -11 33 -25 24 -28 38 -27 132
12 32 13 60 22 63 20 2 -3 -1 -33 -8 -68 -6 -35 -13 -92 -16 -126 -5 -58 -4
-63 15 -63 26 0 76 60 90 108 6 20 19 81 28 134 17 93 19 99 53 122 112 74
214 202 252 314 74 218 -35 439 -226 459 l-52 6 -6 116 c-8 156 -30 221 -183
539 -41 84 -74 155 -74 157 0 3 31 5 69 5 88 0 110 9 160 62 49 54 254 310
385 481 105 138 116 162 162 354 27 117 26 155 -7 197 -26 33 -54 33 -119 -1z
m-3150 -420 c0 -20 -17 -50 -24 -43 -2 3 -2 17 1 33 6 30 23 37 23 10z m2244
-846 c22 -34 40 -64 41 -67 0 -3 23 -39 49 -80 27 -41 57 -88 66 -105 10 -16
36 -62 58 -101 30 -50 49 -101 67 -177 37 -156 36 -158 -30 -184 l-56 -22 -82
48 -82 47 -7 104 c-8 121 -51 428 -73 513 -29 115 -13 122 49 24z m-874 -1647
c0 -5 -4 -10 -10 -10 -5 0 -10 5 -10 10 0 6 5 10 10 10 6 0 10 -4 10 -10z"/>
<path d="M3069 4200 c-21 -14 1 -31 47 -37 46 -5 90 19 65 36 -18 12 -93 12
-112 1z"/>
<path d="M3315 3874 c-29 -53 -86 -116 -116 -126 -11 -4 -10 -9 5 -26 25 -29
36 -96 22 -135 -43 -121 -170 -29 -135 98 6 19 14 35 19 35 6 0 10 5 10 10 0
5 -3 9 -7 9 -39 -6 -78 6 -118 37 l-47 35 7 -43 c18 -123 58 -264 92 -330 68
-130 174 -144 233 -29 42 83 73 279 68 428 l-3 93 -30 -56z"/>
<path d="M1320 3701 c0 -15 6 -21 21 -21 25 0 22 33 -4 38 -12 2 -17 -3 -17
-17z"/>
<path d="M1321 3661 c-17 -11 -7 -41 13 -41 22 0 30 20 15 36 -9 8 -19 10 -28
5z"/>
<path d="M1315 3600 c-4 -7 -3 -16 3 -22 14 -14 45 -2 40 15 -6 16 -34 21 -43
7z"/>
<path d="M3520 2061 c0 -5 5 -13 10 -16 6 -3 10 -2 10 4 0 5 -4 13 -10 16 -5
3 -10 2 -10 -4z"/>
<path d="M3580 2031 c0 -17 4 -31 9 -31 5 0 9 11 9 25 0 14 -4 28 -9 31 -5 3
-9 -9 -9 -25z"/>
<path d="M3495 1900 c3 -5 8 -10 11 -10 2 0 4 5 4 10 0 6 -5 10 -11 10 -5 0
-7 -4 -4 -10z"/>
<path d="M3480 1884 c0 -6 7 -19 15 -30 8 -10 14 -14 14 -9 0 6 -6 19 -14 29
-8 11 -15 15 -15 10z"/>
<path d="M3010 1860 c0 -5 5 -10 11 -10 5 0 7 5 4 10 -3 6 -8 10 -11 10 -2 0
-4 -4 -4 -10z"/>
<path d="M3160 1839 c0 -8 5 -21 10 -29 8 -12 9 -10 7 7 -4 26 -17 43 -17 22z"/>
<path d="M2995 1800 c-3 -5 -2 -10 4 -10 5 0 13 5 16 10 3 6 2 10 -4 10 -5 0
-13 -4 -16 -10z"/>
<path d="M3614 1755 c-4 -8 -10 -12 -15 -9 -5 3 -6 -3 -2 -12 5 -13 3 -15 -7
-9 -8 5 -11 4 -7 -3 13 -20 42 -6 42 21 1 30 -3 34 -11 12z"/>
<path d="M3090 1736 c0 -2 7 -6 15 -10 8 -3 15 -1 15 4 0 6 -7 10 -15 10 -8 0
-15 -2 -15 -4z"/>
<path d="M3100 1691 c0 -5 5 -13 10 -16 6 -3 10 -2 10 4 0 5 -4 13 -10 16 -5
3 -10 2 -10 -4z"/>
<path d="M2931 1664 c0 -11 3 -14 6 -6 3 7 2 16 -1 19 -3 4 -6 -2 -5 -13z"/>
<path d="M3855 1661 c-3 -5 -1 -12 5 -16 5 -3 10 1 10 9 0 18 -6 21 -15 7z"/>
<path d="M3081 1617 c-1 -10 -5 -15 -11 -12 -5 3 -10 -2 -10 -12 0 -16 1 -16
16 -1 9 9 14 22 11 30 -4 9 -6 7 -6 -5z"/>
<path d="M3028 1524 c-4 -3 -4 -12 -1 -20 5 -13 -8 -19 -30 -15 -5 1 -6 -3 -3
-8 9 -13 44 -2 51 17 6 16 -7 37 -17 26z"/>
<path d="M2950 1480 c8 -5 20 -10 25 -10 6 0 3 5 -5 10 -8 5 -19 10 -25 10 -5
0 -3 -5 5 -10z"/>
<path d="M3427 964 c-4 -4 -7 -19 -7 -33 0 -43 -32 -193 -40 -184 -4 4 -14 42
-23 84 -21 99 -35 135 -48 122 -13 -13 -8 -343 6 -343 6 0 9 46 7 123 -3 135
9 142 29 16 6 -41 13 -80 15 -86 7 -26 23 -12 29 25 4 20 13 57 20 82 13 44
13 42 14 -68 1 -86 4 -113 14 -109 9 3 11 46 8 183 -3 168 -8 204 -24 188z"/>
<path d="M2761 946 c-12 -14 -11 -340 1 -352 4 -3 20 -1 36 5 27 11 42 31 55
73 8 22 -11 89 -30 110 -14 16 -14 20 1 42 21 33 21 89 -1 108 -27 23 -50 28
-62 14z m49 -37 c13 -24 5 -73 -16 -90 -12 -10 -14 -2 -14 50 0 62 11 77 30
40z m4 -151 c30 -42 12 -138 -26 -138 -4 0 -8 36 -8 80 0 83 8 96 34 58z"/>
<path d="M2890 780 c0 -113 4 -180 10 -180 6 0 10 38 10 93 0 104 10 102 35
-8 23 -98 24 -100 36 -88 7 7 1 36 -16 89 -18 54 -24 90 -20 114 17 99 17 111
1 135 -9 14 -25 25 -36 25 -19 0 -20 -7 -20 -180z m42 133 c2 -32 -3 -68 -13
-77 -5 -6 -9 10 -9 42 0 29 5 52 10 52 6 0 11 -8 12 -17z"/>
<path d="M3082 944 c-5 -11 -15 -37 -21 -59 -10 -40 -51 -266 -51 -282 1 -20
30 33 30 55 0 20 4 23 33 20 29 -3 32 -6 35 -41 2 -24 8 -37 15 -34 14 4 12
76 -5 237 -11 110 -20 134 -36 104z m17 -187 c1 -55 0 -58 -21 -55 -26 3 -27
20 -6 118 11 51 12 53 19 25 3 -16 7 -56 8 -88z"/>
<path d="M3164 947 c-10 -26 12 -327 26 -340 9 -10 11 6 8 78 -3 84 -2 90 17
90 18 0 20 -8 25 -88 3 -51 9 -86 15 -85 12 4 7 339 -6 352 -5 6 -9 -26 -9
-77 0 -86 0 -87 -25 -87 -25 0 -25 1 -25 79 0 74 -13 112 -26 78z"/>
<path d="M3563 948 c-6 -7 -16 -32 -22 -55 -14 -51 -51 -251 -51 -276 0 -30
19 -9 26 28 5 30 10 35 35 35 26 0 29 -3 29 -34 0 -33 14 -55 27 -42 8 8 -16
327 -26 344 -6 11 -9 11 -18 0z m16 -205 c1 -40 -1 -43 -25 -43 -25 0 -26 2
-20 40 3 22 12 64 18 93 l12 52 7 -50 c4 -27 8 -69 8 -92z"/>
</g>
</svg>
